# xmcd CD database file
#
# Track frame offsets:
#	150
#	19650
#	43382
#	64239
#	83983
#	107440
#	127112
#	147942
#	168644
#
# Disc length: 2828 seconds
#
# Revision: 2
# Processed by: cddbd v1.5.1PL0 Copyright (c) Steve Scherf et al.
# Submitted via: CDex 1.51
#
DISCID=800b0a09
DTITLE=財津和夫 - Z氏の悪い趣味
DYEAR=1990
DGENRE=Pop
TTITLE0=白いパラソル
TTITLE1=ラブ・ストーリーを君に
TTITLE2=サボテンの花
TTITLE3=ふたつの鍵
TTITLE4=今だから
TTITLE5=LOVE SONG
TTITLE6=心の糸
TTITLE7=青春の影
TTITLE8=水色の朝
EXTD=YEAR: 1990
EXTT0=
EXTT1=
EXTT2=
EXTT3=
EXTT4=
EXTT5=
EXTT6=
EXTT7=
EXTT8=
PLAYORDER=
